<?xml version="1.0" encoding="UTF-8" standalone="no"?>
<!DOCTYPE svg PUBLIC "-//W3C//DTD SVG 1.1//EN" "http://www.w3.org/Graphics/SVG/1.1/DTD/svg11.dtd">
<svg width="100%" height="100%" viewBox="0 0 2729 730" version="1.1" xmlns="http://www.w3.org/2000/svg" xmlns:xlink="http://www.w3.org/1999/xlink" xml:space="preserve" xmlns:serif="http://www.serif.com/" style="fill-rule:evenodd;clip-rule:evenodd;stroke-linecap:square;stroke-miterlimit:2;">
    <g transform="matrix(1.76418,0,0,1.76418,-832.485,-446.993)">
        <g>
            <g>
                <g transform="matrix(0.443555,0,0,0.443555,-236.847,99.7858)">
                    <g transform="matrix(600,0,0,600,2131.75,1269.12)">
                        <path d="M0.07,-0L0.3,-0C0.311,-0 0.354,-0 0.387,-0.004C0.559,-0.026 0.652,-0.177 0.652,-0.36C0.652,-0.543 0.559,-0.695 0.387,-0.716C0.354,-0.72 0.312,-0.72 0.3,-0.72L0.07,-0.72L0.07,-0ZM0.193,-0.114L0.193,-0.607L0.3,-0.607C0.32,-0.607 0.355,-0.606 0.379,-0.601C0.479,-0.582 0.525,-0.478 0.525,-0.36C0.525,-0.247 0.481,-0.139 0.379,-0.119C0.355,-0.114 0.32,-0.114 0.3,-0.114L0.193,-0.114Z" style="fill:rgb(242,102,33);fill-rule:nonzero;"/>
                    </g>
                    <g transform="matrix(600,0,0,600,2552.05,1269.12)">
                        <path d="M0.375,0.015C0.54,0.015 0.654,-0.074 0.699,-0.215L0.577,-0.249C0.549,-0.155 0.482,-0.099 0.375,-0.099C0.23,-0.099 0.157,-0.203 0.157,-0.36C0.157,-0.518 0.23,-0.622 0.375,-0.622C0.482,-0.622 0.549,-0.565 0.577,-0.472L0.699,-0.505C0.654,-0.646 0.54,-0.735 0.375,-0.735C0.159,-0.735 0.03,-0.584 0.03,-0.36C0.03,-0.137 0.159,0.015 0.375,0.015Z" style="fill:rgb(242,102,33);fill-rule:nonzero;"/>
                    </g>
                    <g transform="matrix(600,0,0,600,2995.15,1269.12)">
                        <path d="M0.07,-0L0.183,-0L0.183,-0.462L0.404,-0L0.452,-0L0.673,-0.462L0.673,-0L0.785,-0L0.785,-0.72L0.677,-0.72L0.428,-0.21L0.179,-0.72L0.07,-0.72L0.07,-0Z" style="fill:rgb(242,102,33);fill-rule:nonzero;"/>
                    </g>
                    <g transform="matrix(600,0,0,600,3508.15,1269.12)">
                        <rect x="0.08" y="-0.72" width="0.121" height="0.72" style="fill:rgb(242,102,33);fill-rule:nonzero;"/>
                    </g>
                </g>
                <g transform="matrix(0.375372,0,0,0.375372,438.635,433.283)">
                    <path d="M351.53,89.66C357.73,87.42 364.93,88.02 370.59,91.43C377.66,95.6 382.36,103.76 381.67,112.04C381.67,123.84 370.65,133.98 358.98,133.62C349.05,133.75 339.64,126.51 337.26,116.86C333.95,105.89 340.67,93.21 351.53,89.66Z" style="fill:rgb(255,102,0);fill-rule:nonzero;"/>
                    <path d="M253.37,110.35C260.09,108.24 267.86,109.18 273.61,113.37C279.65,117.5 283.19,124.75 283.31,132C283.03,137.53 281.08,143.14 277.18,147.18C271.64,153.44 262.37,156.09 254.37,153.66C246.26,151.45 239.57,144.28 238.34,135.91C238.06,131.27 237.77,126.28 240.08,122.06C242.74,116.6 247.61,112.29 253.37,110.35Z" style="fill:rgb(255,102,0);fill-rule:nonzero;"/>
                    <path d="M450.45,110.54C457.11,108.23 464.84,109.3 470.58,113.41C478.7,118.84 482.58,129.98 479.14,139.2C476.31,148.11 467.4,154.77 458,154.63C448.84,154.96 439.91,148.94 436.65,140.39C434.99,136.58 435.03,132.29 435.41,128.23C436.53,120.1 442.77,113.15 450.45,110.54Z" style="fill:rgb(255,102,0);fill-rule:nonzero;"/>
                    <path d="M172.38,169.36C183.05,165.79 195.65,171.76 199.81,182.18C203.6,190.61 201.36,201.29 194.52,207.52C187.83,214.04 176.94,215.57 168.67,211.25C161.51,207.67 156.55,200.07 156.37,192.04C155.68,182.01 162.72,172.1 172.38,169.36Z" style="fill:rgb(255,102,0);fill-rule:nonzero;"/>
                    <path d="M533.38,169.4C539.27,167.54 545.76,168.92 550.99,172C557.88,176 562.2,184.04 561.71,192.01C561.8,200.9 555.59,209.1 547.5,212.4C543.92,213.98 539.91,213.86 536.1,213.67C527,212.79 519.26,205.44 517.12,196.67C513.96,185.14 521.83,172.21 533.38,169.4Z" style="fill:rgb(255,102,0);fill-rule:nonzero;"/>
                    <path d="M351.42,171.3C358.18,169.25 366.15,169.72 371.99,174.01C378.39,178.42 382.33,186.22 381.67,194.03C381.42,207.13 367.77,217.76 355.01,214.92C344.7,213.17 336.41,203.52 336.47,193.02C336.13,183.55 342.53,174.46 351.42,171.3Z" style="fill:rgb(255,102,0);fill-rule:nonzero;"/>
                    <path d="M287.46,184.7C295.4,182.07 304.63,184.61 310.4,190.6C314.54,194.96 317.03,200.97 316.66,207.03C316.75,215.36 311.32,223.17 303.95,226.79C299.33,229.11 293.96,229.12 288.95,228.43C278.86,226.24 271.07,216.34 271.43,205.99C271.45,196.43 278.34,187.44 287.46,184.7Z" style="fill:rgb(255,102,0);fill-rule:nonzero;"/>
                    <path d="M418.38,184.6C424.24,182.86 430.71,184.07 435.9,187.17C442.98,191.41 447.38,199.79 446.64,208.04C446.32,221.34 432.07,232.05 419.22,228.64C409.29,226.6 401.45,217.18 401.45,207.01C401.01,196.82 408.51,187.02 418.38,184.6Z" style="fill:rgb(255,102,0);fill-rule:nonzero;"/>
                    <path d="M234.38,223.52C247.42,219.37 262.79,230.14 262.76,243.97C263.69,252.82 258.46,261.58 250.63,265.55C246.24,268.08 240.98,268.03 236.09,267.6C227.5,266.18 220.34,259.18 218.3,250.77C215,239.29 222.91,226.37 234.38,223.52Z" style="fill:rgb(255,102,0);fill-rule:nonzero;"/>
                    <path d="M472.45,223.64C478.24,222.7 484.63,222.91 489.65,226.33C498.37,231.49 502.78,242.92 499.41,252.54C496.04,263.55 483.42,270.82 472.25,267.61C462.63,265.26 455.03,256.03 455.27,246.02C454.71,235.75 462.48,225.88 472.45,223.64Z" style="fill:rgb(255,102,0);fill-rule:nonzero;"/>
                    <path d="M347.43,236.77C369.29,234.84 391.76,238.64 411.28,248.83C432.6,259.67 450.31,277.48 461.05,298.86C480.99,337.35 476.42,387.33 449.18,421.19C429.96,446.34 399.65,462.7 368.01,464.6C355.37,465.13 342.51,464.95 330.23,461.53C293.9,452.68 263.22,424.28 251.12,388.97C242.28,364.53 242.45,337.18 250.89,312.66C256.8,295.14 267.58,279.63 280.76,266.78C299.06,250.05 322.67,239.05 347.43,236.77Z" style="fill:rgb(255,102,0);fill-rule:nonzero;"/>
                    <path d="M342.45,238.86C360.66,236.12 379.51,238.05 396.86,244.17C417.82,251.63 436.48,265.4 449.68,283.32C462.18,300 469.86,320.23 471.54,341.02C472.03,352.57 472.03,364.29 469.19,375.57C462.13,408.43 439.21,437.19 409.13,452C373.12,470.31 327.31,466.92 294.37,443.55C264.62,422.95 245.31,387.37 246.18,350.99C245.47,327.44 253.37,304.02 266.95,284.9C284.61,260.27 312.37,243.03 342.45,238.86Z" style="fill:rgb(255,102,0);fill-rule:nonzero;"/>
                    <path d="M122.38,256.46C134.5,252.54 148.74,261.35 150.64,273.94C150.97,278.66 151.2,283.7 148.97,288.04C145.19,296.26 136.01,301.68 126.96,300.74C113.65,300.58 102.99,286.27 106.39,273.47C107.99,265.38 114.47,258.64 122.38,256.46Z" style="fill:rgb(255,102,0);fill-rule:nonzero;"/>
                    <path d="M584.38,256.55C589.48,255.89 595,255.85 599.66,258.35C605.91,261.4 610.43,267.52 611.72,274.33C614.3,285.45 606.62,297.62 595.6,300.41C584.28,304.1 571.07,296.67 567.87,285.3C563.54,273.31 572.03,259.08 584.38,256.55Z" style="fill:rgb(255,102,0);fill-rule:nonzero;"/>
                    <path d="M199.46,281.52C205.46,279.42 212.41,279.93 217.98,283.05C225.37,287.11 230.28,295.54 229.61,304.02C229.42,315.36 219.31,325.24 208.05,325.53C197.71,326.21 187.67,318.79 185.11,308.79C181.82,297.72 188.55,285.12 199.46,281.52Z" style="fill:rgb(255,102,0);fill-rule:nonzero;"/>
                    <path d="M504.4,281.54C509.85,279.74 515.97,280.33 521.07,282.94C528.93,286.64 534.04,295.37 533.61,304.03C533.54,315.75 522.8,326.29 511,325.74C500.21,326.26 490.27,317.53 488.6,307.01C486.54,296.11 493.77,284.56 504.4,281.54Z" style="fill:rgb(255,102,0);fill-rule:nonzero;"/>
                    <path d="M192.47,347.6C198.24,345.55 204.88,345.95 210.32,348.81C218.11,352.63 223.16,361.37 222.6,370.02C222.34,379.6 215.21,388.52 205.88,390.83C196.84,393.44 186.43,389.58 181.26,381.72C176.74,375.27 176.11,366.42 179.48,359.33C182.03,353.91 186.79,349.55 192.47,347.6Z" style="fill:rgb(255,102,0);fill-rule:nonzero;"/>
                    <path d="M511.44,347.57C522.57,343.86 535.56,350.78 539.23,361.79C542.83,371.32 538.83,382.85 530.27,388.28C525,391.95 518.22,392.44 512.07,391.28C502.73,388.81 495.2,379.83 495.31,370.03C494.57,359.94 501.82,350.29 511.44,347.57Z" style="fill:rgb(255,102,0);fill-rule:nonzero;"/>
                    <path d="M112.38,356.53C124.07,353.12 137.3,361.33 139.92,373.11C143.12,384.68 135.23,397.65 123.61,400.41C110.58,404.46 95.71,393.65 95.36,380.05C94.32,369.43 102.01,358.89 112.38,356.53Z" style="fill:rgb(255,102,0);fill-rule:nonzero;"/>
                    <path d="M593.34,357.15C599.4,355.47 606.2,356.1 611.61,359.41C620.15,364.41 624.62,375.34 621.8,384.87C619.5,393.82 611.16,400.56 602.05,401.47C593.58,402.25 584.81,397.87 580.51,390.51C577.37,385.55 576.68,379.36 577.88,373.69C579.64,365.97 585.75,359.41 593.34,357.15Z" style="fill:rgb(255,102,0);fill-rule:nonzero;"/>
                    <path d="M215.32,410.09C223.09,408.15 231.77,410.96 237.12,416.88C240.98,420.92 242.99,426.47 243.28,431.99C243.08,438.51 240.35,445.07 235.3,449.31C228.38,455.48 217.53,456.5 209.49,452C202.88,448.46 198.55,441.39 197.79,434.01C196.76,423.16 204.72,412.44 215.32,410.09Z" style="fill:rgb(255,102,0);fill-rule:nonzero;"/>
                    <path d="M492.33,410.36C500.95,408.2 510.6,412.1 515.69,419.31C521.46,427.33 521.21,439.2 514.83,446.82C509.39,453.55 499.76,456.94 491.4,454.35C483.77,452.36 477.43,446.14 475.41,438.5C471.6,426.57 480.15,412.76 492.33,410.36Z" style="fill:rgb(255,102,0);fill-rule:nonzero;"/>
                    <path d="M143.37,452.42C154.53,449.13 167.22,456.4 170.52,467.45C174.21,477.79 168.77,490.17 158.85,494.72C154.29,497.12 148.93,497.11 143.95,496.43C133.79,494.36 125.9,484.36 126.34,473.99C126.26,464.04 133.69,454.66 143.37,452.42Z" style="fill:rgb(255,102,0);fill-rule:nonzero;"/>
                    <path d="M563.4,452.66C568.73,451.79 574.55,451.87 579.35,454.65C588.21,459.19 593.38,470.08 590.83,479.78C588.35,491.72 575,500.07 563.22,496.66C555.03,494.73 548.36,487.81 546.58,479.62C545.94,474.76 545.94,469.57 548.23,465.11C551.07,458.97 556.79,454.17 563.4,452.66Z" style="fill:rgb(255,102,0);fill-rule:nonzero;"/>
                    <path d="M256.47,460.58C264.11,457.86 273.42,458.83 279.57,464.43C286.05,469.72 288.94,478.85 286.92,486.93C284.92,495.17 278,502.06 269.65,503.76C258.41,506.61 245.97,498.95 243.05,487.79C239.81,476.95 245.94,464.61 256.47,460.58Z" style="fill:rgb(255,102,0);fill-rule:nonzero;"/>
                    <path d="M445.42,460.35C452.6,458.06 460.99,459.29 466.9,464.09C471.64,468.01 474.83,473.82 475.4,479.96C475.99,487.9 472.17,496.07 465.53,500.53C459.99,504.19 452.79,505.66 446.38,503.59C438.4,501.26 431.87,494.29 430.47,486.04C430.06,481.85 429.97,477.44 431.64,473.49C434.06,467.41 439.26,462.51 445.42,460.35Z" style="fill:rgb(255,102,0);fill-rule:nonzero;"/>
                    <path d="M317.46,487.55C325.54,484.66 335.36,486.29 341.46,492.55C348.48,499.17 349.71,510.42 345.76,518.94C341.42,527.76 330.75,533.14 321.1,530.94C312.73,529.35 305.76,522.64 303.59,514.45C300.45,503.7 306.94,491.31 317.46,487.55Z" style="fill:rgb(255,102,0);fill-rule:nonzero;"/>
                    <path d="M384.44,487.41C387.82,486.14 391.51,486.13 395.06,486.4C406.02,487.54 415.07,497.97 414.63,508.99C414.73,518.69 407.81,527.88 398.46,530.5C387.39,534.24 374.31,527.43 370.68,516.41C366.18,505.06 372.94,491.22 384.44,487.41Z" style="fill:rgb(255,102,0);fill-rule:nonzero;"/>
                    <path d="M210.38,527.46C223.45,523.23 238.87,534.11 238.77,547.97C239.77,557.06 234.16,566.06 225.95,569.81C221.96,571.91 217.32,571.99 212.93,571.63C203.73,570.51 195.94,562.95 194.16,553.9C191.39,542.61 199.2,530.28 210.38,527.46Z" style="fill:rgb(255,102,0);fill-rule:nonzero;"/>
                    <path d="M492.55,528.59C499.73,526.02 508.5,526.53 514.71,531.29C520.94,535.68 524.41,543.47 523.73,551.04C523.51,563.76 510.46,574.21 498.01,571.94C489,570.74 481.26,563.6 479.19,554.78C476.33,544.33 482.57,532.56 492.55,528.59Z" style="fill:rgb(255,102,0);fill-rule:nonzero;"/>
                    <path d="M302.38,568.51C315.45,564.27 330.89,575.14 330.78,589C331.75,598.22 326.07,607.51 317.55,611.08C313.33,613.1 308.5,612.98 303.95,612.54C295.09,611.04 287.89,603.53 286.14,594.8C283.5,583.56 291.28,571.36 302.38,568.51Z" style="fill:rgb(255,102,0);fill-rule:nonzero;"/>
                    <path d="M403.39,568.56C408.78,566.83 414.69,567.83 419.67,570.33C427.51,574.32 432.5,583.26 431.65,592.04C431.38,605.35 417.05,616.01 404.23,612.53C394.35,610.48 386.54,601.14 386.46,591.01C386.05,580.81 393.49,570.99 403.39,568.56Z" style="fill:rgb(255,102,0);fill-rule:nonzero;"/>
                </g>
                <g transform="matrix(0.464926,0,0,0.464926,1419.38,662.841)">
                    <g transform="matrix(572.42,0,0,572.42,0,0)">
                        <path d="M0.05,-0L0.512,-0L0.512,-0.057L0.138,-0.057L0.417,-0.31C0.483,-0.369 0.512,-0.423 0.512,-0.509C0.512,-0.633 0.413,-0.735 0.285,-0.735C0.157,-0.735 0.056,-0.636 0.056,-0.509L0.114,-0.509C0.114,-0.6 0.187,-0.679 0.284,-0.679C0.379,-0.679 0.453,-0.603 0.453,-0.509C0.453,-0.454 0.441,-0.408 0.382,-0.356L0.051,-0.055L0.05,-0Z" style="fill:rgb(128,128,128);fill-rule:nonzero;"/>
                    </g>
                    <g transform="matrix(572.42,0,0,572.42,321.414,0)">
                        <path d="M0.297,0.015C0.424,0.015 0.524,-0.086 0.524,-0.212L0.524,-0.508C0.524,-0.635 0.424,-0.735 0.297,-0.735C0.171,-0.735 0.07,-0.635 0.07,-0.508L0.07,-0.212C0.07,-0.086 0.171,0.015 0.297,0.015ZM0.128,-0.211L0.128,-0.51C0.128,-0.603 0.204,-0.679 0.297,-0.679C0.39,-0.679 0.466,-0.603 0.466,-0.51L0.466,-0.211C0.466,-0.118 0.39,-0.042 0.297,-0.042C0.204,-0.042 0.128,-0.118 0.128,-0.211Z" style="fill:rgb(128,128,128);fill-rule:nonzero;"/>
                    </g>
                    <g transform="matrix(572.42,0,0,572.42,661.431,0)">
                        <path d="M0.05,-0L0.512,-0L0.512,-0.057L0.138,-0.057L0.417,-0.31C0.483,-0.369 0.512,-0.423 0.512,-0.509C0.512,-0.633 0.413,-0.735 0.285,-0.735C0.157,-0.735 0.056,-0.636 0.056,-0.509L0.114,-0.509C0.114,-0.6 0.187,-0.679 0.284,-0.679C0.379,-0.679 0.453,-0.603 0.453,-0.509C0.453,-0.454 0.441,-0.408 0.382,-0.356L0.051,-0.055L0.05,-0Z" style="fill:rgb(128,128,128);fill-rule:nonzero;"/>
                    </g>
                    <g transform="matrix(572.42,0,0,572.42,982.844,0)">
                        <path d="M0.283,0.015C0.415,0.015 0.525,-0.095 0.525,-0.226C0.525,-0.359 0.419,-0.465 0.287,-0.465C0.226,-0.465 0.17,-0.442 0.129,-0.403L0.145,-0.664L0.474,-0.664L0.474,-0.72L0.092,-0.72L0.07,-0.348L0.125,-0.321C0.157,-0.374 0.212,-0.41 0.283,-0.41C0.382,-0.41 0.467,-0.33 0.467,-0.226C0.467,-0.127 0.388,-0.043 0.283,-0.043C0.203,-0.043 0.127,-0.096 0.105,-0.18L0.05,-0.165C0.079,-0.061 0.169,0.015 0.283,0.015Z" style="fill:rgb(128,128,128);fill-rule:nonzero;"/>
                    </g>
                </g>
            </g>
        </g>
    </g>
    <g transform="matrix(1.33789,0,0,1.33789,540.221,-629.647)">
        <path d="M1630.48,662.859L1119.2,661.655L1119.2,568.607L1102.88,568.607L1102.88,635.111L1086.54,635.111L1086.54,675.935L1067.89,675.935L1067.89,607.103L1044.55,607.103L1044.55,671.279L1036.39,671.279L1036.39,699.009L1022.04,699.009L1022.04,603.611L1008.38,603.611L1008.38,513.779L995.543,513.779L995.543,481.103L990.863,481.103L990.863,513.779L966.371,513.779L966.371,686.449L957.094,686.449C962.84,664.082 966.14,626.222 946.535,590.785C916.199,535.933 877.703,544.105 877.703,544.105L877.703,672.435L862.297,672.435L862.297,640.373L850.621,640.373L850.621,624.197C850.621,617.439 845.16,611.97 838.394,611.97C831.624,611.97 826.14,617.443 826.14,624.197L826.14,640.373L799.882,640.373L799.882,611.775L797.542,611.775L789.405,562.119L781.725,611.775L779.456,611.775L779.456,640.373L747.354,640.373L747.354,626.357L734.542,626.353L734.542,615.853L726.3,615.853L726.3,596.736C726.3,586.138 717.706,577.56 707.112,577.56C696.503,577.56 687.924,586.138 687.924,596.736L687.924,615.853L679.701,615.853L679.701,626.353L666.861,626.353L666.861,640.369L633.607,640.369L633.607,611.174L631.783,611.174L623.744,562.119L616.146,611.174L614.369,611.174L614.369,640.369L588.099,640.369L588.099,624.193C588.099,617.436 582.603,611.966 575.861,611.966C569.091,611.966 563.623,617.439 563.623,624.193L563.623,640.369L553.425,640.271L553.351,486.842L534.364,486.94L534.364,475.85L496.458,475.85L496.458,486.94L478.938,486.94L478.938,653.19L466.387,653.19L466.387,622.854L457.063,622.854L457.059,535.928L433.731,535.928L433.731,638.028L423.219,638.028L423.219,598.368L407.125,598.368L407.125,567.43C407.125,542.364 401.867,477.61 376.199,477.61L375.972,477.61C350.304,477.61 345.034,542.364 345.034,567.43L345.034,653.184L332.124,653.184L332.124,605.914L332.042,605.91L327.003,557.047C328.757,556.758 330.074,555.258 330.074,553.422C330.074,551.406 328.429,549.762 326.39,549.762C324.363,549.762 322.718,551.406 322.718,553.422C322.718,555.391 324.253,556.973 326.175,557.07L321.519,606.668L321.616,606.668L321.616,614.11L319.792,614.11L319.792,590.325L319.878,590.325L314.73,540.716C316.484,540.427 317.816,538.915 317.816,537.103C317.816,535.075 316.159,533.419 314.132,533.419C312.116,533.419 310.472,535.063 310.472,537.103C310.472,539.06 311.984,540.63 313.929,540.751L309.331,589.771L309.308,589.771L309.308,590.037L309.284,590.326L309.308,590.326L309.308,614.111L304.663,614.111L300.487,590.974L296.73,614.111L291.241,614.111L291.241,590.326L291.277,590.326L291.241,589.99L291.241,589.533L291.206,589.533L286.155,540.717C287.909,540.428 289.241,538.916 289.241,537.103C289.241,535.076 287.597,533.42 285.558,533.42C283.53,533.42 281.886,535.064 281.886,537.103C281.886,539.06 283.409,540.631 285.331,540.752L280.784,589.533L280.761,589.533L280.761,589.748L280.702,590.322L280.761,590.322L280.761,614.107L278.878,614.107L278.878,606.654L279.034,606.654L273.921,557.045C275.659,556.756 276.991,555.256 276.991,553.42C276.991,551.404 275.347,549.76 273.308,549.76C271.28,549.76 269.647,551.404 269.647,553.42C269.647,555.389 271.171,556.971 273.104,557.068L268.495,606.22L268.374,606.22L268.374,660.173L261.632,660.173L261.632,619.939L246.476,619.939L246.476,667.169L231.871,667.169L231.871,524.849L208.555,524.849L208.555,579.103L196.289,579.103L196.289,658.244L192.57,637.592L188.453,662.983L183.136,662.983L178.566,637.592L174.414,662.983L168.617,662.983L164.07,637.592L159.929,662.983L158.523,662.987L158.523,671.268L146.425,671.268L146.425,639.166L153.144,639.166L153.144,630.42L146.687,630.42L142.355,621.686L138.445,630.42L138.144,630.42L133.812,621.686L129.874,630.42L82.538,630.416L78.195,621.682L74.331,630.322L70.034,621.682L66.109,630.416L59.8,630.416L59.8,639.162L66.495,639.162L66.495,661.006L-398.563,662.42" style="fill:none;fill-rule:nonzero;stroke:rgb(129,128,127);stroke-width:4.67px;"/>
    </g>
</svg>
